<?xml version="1.0" encoding="UTF-8"?>
<svg version="1.1" xmlns="http://www.w3.org/2000/svg" width="800" height="800">
<path d="M0 0 C30.36 0 60.72 0 92 0 C92.01458252 7.434104 92.02916504 14.86820801 92.04418945 22.52758789 C92.09302283 46.3568406 92.15645286 70.18603175 92.22898628 94.01522309 C92.24025346 97.72116727 92.25139207 101.42711183 92.26245117 105.13305664 C92.26465486 105.87079445 92.26685854 106.60853225 92.269129 107.36862575 C92.30443074 119.28922268 92.32933499 131.20981954 92.35034702 143.13044924 C92.37216599 155.37650766 92.40527385 167.62249868 92.44870156 179.8684997 C92.47511368 187.41532057 92.49288574 194.96205758 92.49934604 202.50892233 C92.50526002 208.31129172 92.52693608 214.11352274 92.55427551 219.9158268 C92.56302337 222.28480965 92.56678511 224.65381737 92.56500816 227.0228157 C92.55078319 254.75368031 97.95336687 277.08117296 117.25 297.8125 C134.23920711 313.93123537 157.2205375 321.53815108 180.32421875 321.21484375 C199.85493455 320.5750787 218.48473626 311.71906053 233 299 C233.68835938 298.40703125 234.37671875 297.8140625 235.0859375 297.203125 C251.48639342 282.03432387 258.81225405 259.76396133 260 238 C260.20872062 230.26583893 260.18522007 222.52643316 260.20532227 214.79003906 C260.21491364 212.44346957 260.22492444 210.09690176 260.23532104 207.75033569 C260.26223981 201.40828418 260.28331951 195.06622533 260.30332303 188.72414875 C260.32303764 182.75919934 260.3471579 176.7942684 260.37124526 170.82933542 C260.41877908 159.02295477 260.46208125 147.21656261 260.50268555 135.41015625 C260.54211313 123.94855862 260.58355648 112.48697116 260.62768555 101.02539062 C260.63177196 99.96376223 260.63177196 99.96376223 260.63594092 98.88068679 C260.64962159 95.32972532 260.66334163 91.778764 260.67708123 88.22780275 C260.79082248 58.81855609 260.89689444 29.40928616 261 0 C291.36 0 321.72 0 353 0 C357.29 13.2 361.58 26.4 366 40 C376.3591771 68.08930714 387.69184623 95.39172854 400.75 122.3125 C401.0963147 123.02695282 401.44262939 123.74140564 401.79943848 124.47750854 C408.83265408 138.94590354 416.16978878 153.25527714 424.4375 167.0625 C424.98172607 167.97789551 425.52595215 168.89329102 426.08666992 169.83642578 C430.93823168 177.96606982 435.92705826 186.00696765 441 194 C443.11358873 188.75514188 445.19798227 183.50103261 447.2265625 178.22265625 C462.31146324 139.26538133 485.89846368 101.76157839 522 79 C523.01578125 78.32324219 524.0315625 77.64648438 525.078125 76.94921875 C562.8423363 52.51634335 611.10475527 44.88629449 655 54 C680.19511395 59.60383244 702.75046176 69.44199287 724 84 C725.48113281 84.99966797 725.48113281 84.99966797 726.9921875 86.01953125 C750.69861184 103.10662932 768.78540561 126.16606321 782 152 C782.57363281 153.11761719 783.14726563 154.23523438 783.73828125 155.38671875 C790.74020186 169.80669478 795.10501486 185.27431275 798 201 C798.17805176 201.92619141 798.35610352 202.85238281 798.53955078 203.80664062 C800.18115872 213.17803608 800.39784162 222.39064999 800.375 231.875 C800.37478851 232.68748199 800.37457703 233.49996399 800.37435913 234.33706665 C800.33923954 247.8980543 799.25373996 260.79271381 796 274 C795.80744629 274.80904785 795.61489258 275.6180957 795.41650391 276.45166016 C789.80076777 299.62302256 779.53830588 322.04012671 765 341 C764.45061768 341.7209082 763.90123535 342.44181641 763.33520508 343.18457031 C758.01603826 350.01722226 752.17924613 356.26103559 746.0625 362.375 C745.56032959 362.87823792 745.05815918 363.38147583 744.54077148 363.89996338 C736.0359255 372.37890047 727.22166984 379.67119839 717 386 C715.71606944 386.8214952 714.43221457 387.64310871 713.1484375 388.46484375 C694.23851174 400.36117181 673.81230424 407.49386529 652 412 C650.99710938 412.21527344 649.99421875 412.43054688 648.9609375 412.65234375 C620.65158004 417.87927363 590.70541688 414.93488872 563 408 C562.14776855 407.78891602 561.29553711 407.57783203 560.41748047 407.36035156 C538.17193144 401.68417255 516.11034033 391.74022689 497 379 C495.41647728 383.46862276 494.27955683 387.94390687 493.32359314 392.57952881 C493.08932573 393.6937864 493.08932573 393.6937864 492.85032564 394.83055425 C492.3303598 397.30789311 491.81546128 399.78625715 491.30053711 402.26464844 C490.92779838 404.04558255 490.55473823 405.82644943 490.18138123 407.60725403 C489.37942475 411.43564818 488.57968676 415.26449663 487.78166008 419.09371185 C486.52059541 425.144419 485.25428096 431.19401999 483.98719788 437.24346924 C481.52843559 448.98590081 479.074875 460.72941617 476.62198639 472.47307587 C473.49645021 487.43633166 470.36903456 502.39919239 467.23600012 517.36088014 C465.9758912 523.37939353 464.71860996 529.39848875 463.46349514 535.41804552 C462.68397055 539.15401789 461.9021805 542.88951351 461.11977577 546.62488365 C460.7563861 548.36218019 460.39396212 550.09967903 460.03255463 551.83738899 C459.54071763 554.20160117 459.04550515 556.56508126 458.54942322 558.92840576 C458.33405479 559.96992062 458.33405479 559.96992062 458.11433548 561.03247619 C457.11408513 565.77182974 457.11408513 565.77182974 456 568 C424.98 568 393.96 568 362 568 C363.12500485 558.99996122 363.12500485 558.99996122 363.92562866 555.2230072 C364.10669222 554.36088717 364.28775578 553.49876715 364.47430611 552.61052227 C364.67147161 551.68838342 364.86863712 550.76624456 365.07177734 549.81616211 C365.28268446 548.81675756 365.49359158 547.817353 365.71088982 546.78766346 C366.41606046 543.45020884 367.12598241 540.11378361 367.8359375 536.77734375 C368.34432812 534.37654297 368.85243859 531.97568285 369.36029053 529.57476807 C370.45438834 524.40557532 371.55055787 519.23682834 372.64849854 514.06845093 C374.23935574 506.57954119 375.82541722 499.08962131 377.41065478 491.59952033 C383.34380653 463.56888544 389.30554785 435.54441009 395.29600608 407.52596754 C396.40557264 402.33602413 397.51415606 397.14587152 398.62210083 391.95558167 C398.77647759 391.23242384 398.93085435 390.50926601 399.0899092 389.76419431 C399.70768489 386.87025916 400.32544795 383.97632132 400.94308496 381.08235657 C402.75429159 372.59618841 404.56964215 364.11093089 406.39180374 355.62710798 C407.67098102 349.66992419 408.94404457 343.71145099 410.21494293 337.75249481 C410.73819819 335.30438849 411.26360014 332.8567399 411.79128265 330.40958405 C412.51114792 327.07004103 413.22352164 323.72898437 413.93408203 320.38745117 C414.25160211 318.92794241 414.25160211 318.92794241 414.57553673 317.43894863 C416.54419998 309.63766108 416.54419998 309.63766108 414.98461914 302.07910156 C414.26713501 301.24330566 414.26713501 301.24330566 413.53515625 300.390625 C412.71857544 299.40219604 412.71857544 299.40219604 411.88549805 298.39379883 C411.28390869 297.68634521 410.68231934 296.9788916 410.0625 296.25 C387.21030969 268.16783706 369.85069489 235.39286306 354 203 C353.98018066 204.07145264 353.96036133 205.14290527 353.93994141 206.24682617 C352.74875315 268.48542487 343.06453057 320.04215484 298 366 C295.42628206 368.46201951 292.75458719 370.74431685 290 373 C289.21753906 373.68191406 288.43507813 374.36382812 287.62890625 375.06640625 C264.88413902 394.49915686 237.00430274 405.92019097 208 412 C206.95972656 412.23589844 205.91945312 412.47179687 204.84765625 412.71484375 C175.24499862 418.67015079 143.1312947 414.15313395 115 404 C114.04351562 403.65710938 113.08703125 403.31421875 112.1015625 402.9609375 C77.8594259 389.62856499 46.05661287 364.72195501 27 333 C26.58766113 332.32001953 26.17532227 331.64003906 25.75048828 330.93945312 C14.21231128 311.68656083 6.13235016 291.08822215 2 269 C1.83056444 268.13587683 1.66112888 267.27175365 1.48655891 266.38144493 C-0.56471241 254.30409107 -0.26561198 242.21540602 -0.22705078 230.00244141 C-0.22648587 227.4880931 -0.22680479 224.97374447 -0.22793579 222.45939636 C-0.22838919 217.07117877 -0.22276778 211.68302362 -0.21146011 206.29481888 C-0.19512243 198.50464223 -0.1899887 190.71448894 -0.18748413 182.92429702 C-0.18311992 170.28154924 -0.16984559 157.63882744 -0.15087891 144.99609375 C-0.13248699 132.72363412 -0.11834675 120.45118159 -0.10986328 108.17871094 C-0.10933783 107.42070519 -0.10881239 106.66269945 -0.10827102 105.88172384 C-0.10566071 102.07857459 -0.10313335 98.2754253 -0.10064721 94.47227597 C-0.07995442 62.98149428 -0.04310623 31.49076097 0 0 Z M557.73193359 168.44042969 C548.41952159 179.3616195 541.48893232 191.14806516 535.8125 204.3125 C535.50352783 205.02172607 535.19455566 205.73095215 534.8762207 206.46166992 C528.80648106 221.08224597 525.55562748 236.65828764 522.29541016 252.08837891 C521.6166211 255.28951447 520.92009426 258.4864756 520.22265625 261.68359375 C519.78539176 263.7315434 519.34915485 265.77971278 518.9140625 267.828125 C518.70584869 268.77705627 518.49763489 269.72598755 518.28311157 270.70367432 C518.09896698 271.58940125 517.91482239 272.47512817 517.72509766 273.38769531 C517.56030914 274.16026672 517.39552063 274.93283813 517.22573853 275.7288208 C516.95833954 278.41915025 517.21533046 280.41333762 518 283 C520.13973716 284.95641698 522.13531522 286.55146118 524.5 288.1875 C525.50498535 288.8997876 525.50498535 288.8997876 526.53027344 289.62646484 C545.73525344 303.01485095 566.27779453 313.23416228 589 319 C590.01344482 319.26683594 590.01344482 319.26683594 591.04736328 319.5390625 C614.89993743 325.636804 641.42338258 323.06902445 663 311 C667.90170461 307.97113395 672.46286177 304.54408177 677 301 C677.68449219 300.49984375 678.36898437 299.9996875 679.07421875 299.484375 C694.50714368 287.54094592 704.10737065 266.45806386 707.61328125 247.72265625 C710.44649291 220.44941676 704.42335791 195.69048827 687.5 173.875 C672.66026127 156.82750872 650.50068357 145.14923982 628 143 C602.10291515 141.53558151 575.47457808 148.28609729 557.73193359 168.44042969 Z " fill="#FFFFFF" transform="translate(0,116)"/>
</svg>
